<?xml version="1.0" encoding="UTF-8" standalone="no"?>
<svg
   xmlns:dc="http://purl.org/dc/elements/1.1/"
   xmlns:cc="http://creativecommons.org/ns#"
   xmlns:rdf="http://www.w3.org/1999/02/22-rdf-syntax-ns#"
   xmlns:svg="http://www.w3.org/2000/svg"
   xmlns="http://www.w3.org/2000/svg"
   xmlns:sodipodi="http://sodipodi.sourceforge.net/DTD/sodipodi-0.dtd"
   xmlns:inkscape="http://www.inkscape.org/namespaces/inkscape"
   sodipodi:docname="club.svg"
   inkscape:version="1.0 (4035a4f, 2020-05-01)"
   id="svg8"
   version="1.1"
   viewBox="0 0 92.419121 92.536034"
   height="92.536034mm"
   width="92.419121mm">
  <defs
     id="defs2" />
  <sodipodi:namedview
     inkscape:window-maximized="0"
     inkscape:window-y="23"
     inkscape:window-x="0"
     inkscape:window-height="855"
     inkscape:window-width="1440"
     showgrid="false"
     inkscape:document-rotation="0"
     inkscape:current-layer="layer1"
     inkscape:document-units="mm"
     inkscape:cy="-126.67113"
     inkscape:cx="515.54966"
     inkscape:zoom="0.42996704"
     inkscape:pageshadow="2"
     inkscape:pageopacity="0.0"
     borderopacity="1.0"
     bordercolor="#666666"
     pagecolor="#ffffff"
     id="base" />
  <metadata
     id="metadata5">
    <rdf:RDF>
      <cc:Work
         rdf:about="">
        <dc:format>image/svg+xml</dc:format>
        <dc:type
           rdf:resource="http://purl.org/dc/dcmitype/StillImage" />
        <dc:title></dc:title>
      </cc:Work>
    </rdf:RDF>
  </metadata>
  <g
     transform="translate(-0.95739114,-0.97864586)"
     id="layer1"
     inkscape:groupmode="layer"
     inkscape:label="レイヤー 1">
    <path
       style="fill:#33d53b;fill-opacity:1;stroke:#2ec53b;stroke-width:3.107;stroke-miterlimit:4;stroke-dasharray:none;stroke-opacity:1"
       id="path12"
       d="m 45.841219,2.7048412 c -0.13257,0.014 -0.54424,0.0628 -0.90707,0.10466 -3.27944,0.36981 -6.65655,1.81415 -9.41964,4.0120699 -0.75357,0.6000594 -2.33747,2.1839585 -2.95847,2.9584582 -2.89566,3.6213297 -4.50747,8.2125397 -4.50747,12.8455997 0,5.22615 1.9258,10.2709 6.67748,17.49262 0.39074,0.57913 0.69078,1.06057 0.66984,1.06057 -0.0209,0 -0.15351,-0.0907 -0.29305,-0.20234 -0.13955,-0.10466 -0.62798,-0.44656 -1.0885,-0.75357 -3.20965,-2.13512 -6.21696,-3.34223 -9.66385,-3.86555 -1.22106,-0.18838 -3.86554,-0.23025 -4.91914,-0.0767 -3.41898,0.4954 -6.21696,1.63273 -8.82655,3.57946 -5.0865978,3.79576 -8.0939078,9.88713 -8.0939078,16.39017 0,6.50303 3.00731,12.5944 8.0939078,16.39016 2.60959,1.94673 5.42153,3.09104 8.82655,3.57947 1.02569,0.14653 3.43294,0.11164 4.60515,-0.0698 3.76786,-0.57913 7.26359,-2.07929 11.61756,-4.98891 1.43039,-0.95593 2.66541,-1.85602 5.29593,-3.84461 1.32573,-1.00476 2.49097,-1.87695 2.60261,-1.94673 l 0.19537,-0.13257 v 0.20235 c 0,0.23723 -0.23724,2.76309 -0.38376,4.06788 -0.9629,8.5963 -2.8259,13.5294 -6.42629,17.02513 -2.58168,2.50492 -5.60992,4.033 -10.56395,5.33082 -0.33492,0.0837 2.23281,0.0977 20.79298,0.0977 18.56018,0 21.1279,-0.014 20.79298,-0.0977 -4.95403,-1.29782 -7.98227,-2.8259 -10.56395,-5.33082 -3.30734,-3.20966 -5.12149,-7.59851 -6.14021,-14.82721 -0.28608,-2.0165 -0.7117,-6.09834 -0.65588,-6.35651 0.014,-0.0837 0.2163,0.0488 0.78846,0.53029 2.24675,1.89788 4.42373,3.55155 6.38442,4.84937 4.50049,2.98637 8.55442,4.67493 12.9363,5.38664 4.3121,0.7117 9.14751,-0.57914 13.02003,-3.47481 5.08661,-3.79576 8.09391,-9.88713 8.09391,-16.39016 0,-6.50304 -3.0073,-12.59441 -8.09391,-16.39017 -4.57725,-3.41898 -10.29881,-4.52841 -15.6994,-3.04918 -2.45608,0.66985 -4.92612,1.82114 -7.98924,3.70506 -0.57216,0.35586 -1.05361,0.64193 -1.06757,0.62798 -0.014,-0.014 0.21631,-0.34888 0.51634,-0.7466 1.71647,-2.30257 3.43992,-5.29593 4.48654,-7.77294 1.6746,-3.98416 2.53284,-8.44279 2.24676,-11.67337 -0.36283,-4.10976 -1.91882,-8.01018 -4.44468,-11.1709997 -0.62099,-0.7744997 -2.20489,-2.3583988 -2.95846,-2.9584582 -2.70029,-2.1490699 -5.7704,-3.4887499 -9.17542,-3.9911399 -0.66984,-0.0977 -3.29339,-0.18839 -3.80275,-0.12559 z" />
  </g>
</svg>
