<?xml version="1.0" encoding="UTF-8" standalone="no"?>
<svg
   xmlns:dc="http://purl.org/dc/elements/1.1/"
   xmlns:cc="http://creativecommons.org/ns#"
   xmlns:rdf="http://www.w3.org/1999/02/22-rdf-syntax-ns#"
   xmlns:svg="http://www.w3.org/2000/svg"
   xmlns="http://www.w3.org/2000/svg"
   xmlns:sodipodi="http://sodipodi.sourceforge.net/DTD/sodipodi-0.dtd"
   xmlns:inkscape="http://www.inkscape.org/namespaces/inkscape"
   sodipodi:docname="heart.svg"
   inkscape:version="1.0 (4035a4f, 2020-05-01)"
   id="svg8"
   version="1.1"
   viewBox="0 0 99.12294 90.109192"
   height="90.109192mm"
   width="99.12294mm">
  <defs
     id="defs2" />
  <sodipodi:namedview
     inkscape:window-maximized="0"
     inkscape:window-y="23"
     inkscape:window-x="0"
     inkscape:window-height="855"
     inkscape:window-width="1440"
     showgrid="false"
     inkscape:document-rotation="0"
     inkscape:current-layer="layer1"
     inkscape:document-units="mm"
     inkscape:cy="488.67217"
     inkscape:cx="417.56167"
     inkscape:zoom="0.53230854"
     inkscape:pageshadow="2"
     inkscape:pageopacity="0.0"
     borderopacity="1.0"
     bordercolor="#666666"
     pagecolor="#ffffff"
     id="base" />
  <metadata
     id="metadata5">
    <rdf:RDF>
      <cc:Work
         rdf:about="">
        <dc:format>image/svg+xml</dc:format>
        <dc:type
           rdf:resource="http://purl.org/dc/dcmitype/StillImage" />
        <dc:title></dc:title>
      </cc:Work>
    </rdf:RDF>
  </metadata>
  <g
     transform="translate(-0.64444014,-0.74487764)"
     id="layer1"
     inkscape:groupmode="layer"
     inkscape:label="レイヤー 1">
    <path
       style="fill:#ee1174;fill-opacity:1;stroke:#bf1c3a;stroke-width:2.408;stroke-miterlimit:4;stroke-dasharray:none;stroke-opacity:1"
       id="path835"
       d="m 69.751907,2.0245977 c -3.356451,0.279705 -6.705345,1.307803 -9.441912,2.910434 -1.905012,1.11126 -3.167462,2.094003 -4.891048,3.8100272 -1.980607,1.9806101 -3.394248,3.8856271 -4.875924,6.5768321 -0.453576,0.816435 -0.325063,0.869351 -1.043224,-0.446013 -1.882333,-3.43961 -4.762532,-6.6524273 -7.869517,-8.7917903 -5.16319,-3.545439 -12.344788,-4.853246 -19.541506,-3.560557 -3.484965,0.627445 -7.000168,2.071324 -9.782093,4.021694 -1.988169,1.398521 -4.0519308,3.4547266 -5.5411679,5.5336113 -2.5097778,3.50764 -4.1880027,8.058505 -4.8003287,13.002469 -0.151189,1.209529 -0.128515,4.68694 0.0378,6.047658 0.763522,6.198859 3.2430573,12.29188 7.7636829,19.07281 5.2765837,7.91488 13.2141397,16.42696 24.6820187,26.4812 5.405097,4.7323 15.610523,13.11587 15.791954,12.96469 0.04536,-0.0379 0.952508,-0.72573 2.010846,-1.52705 7.340352,-5.54873 13.977661,-11.08991 19.806092,-16.54034 1.82186,-1.70092 6.41808,-6.32738 7.899758,-7.94513 4.233365,-4.62646 7.219399,-8.35332 9.978643,-12.4733 5.042229,-7.52177 7.740984,-14.181766 8.519608,-21.015617 0.14364,-1.315371 0.12096,-4.702059 -0.0378,-6.009867 C 97.510655,16.939638 94.086176,11.01293 88.552575,7.0668327 86.541723,5.6305137 83.888315,4.3151507 81.355856,3.4987127 77.621429,2.2967417 73.236869,1.7373317 69.751907,2.0245977 Z" />
  </g>
</svg>
