<?xml version="1.0" encoding="UTF-8" standalone="no"?>
<svg
   xmlns:dc="http://purl.org/dc/elements/1.1/"
   xmlns:cc="http://creativecommons.org/ns#"
   xmlns:rdf="http://www.w3.org/1999/02/22-rdf-syntax-ns#"
   xmlns:svg="http://www.w3.org/2000/svg"
   xmlns="http://www.w3.org/2000/svg"
   xmlns:sodipodi="http://sodipodi.sourceforge.net/DTD/sodipodi-0.dtd"
   xmlns:inkscape="http://www.inkscape.org/namespaces/inkscape"
   sodipodi:docname="jack.svg"
   inkscape:version="1.0 (4035a4f, 2020-05-01)"
   id="svg1619"
   version="1.1"
   viewBox="0 0 49.027138 52.577091"
   height="52.577091mm"
   width="49.027138mm">
  <defs
     id="defs1613" />
  <sodipodi:namedview
     inkscape:window-maximized="0"
     inkscape:window-y="23"
     inkscape:window-x="0"
     inkscape:window-height="855"
     inkscape:window-width="1440"
     showgrid="false"
     inkscape:document-rotation="0"
     inkscape:current-layer="layer1"
     inkscape:document-units="mm"
     inkscape:cy="81.83322"
     inkscape:cx="69.5602"
     inkscape:zoom="1.3199773"
     inkscape:pageshadow="2"
     inkscape:pageopacity="0.0"
     borderopacity="1.0"
     bordercolor="#666666"
     pagecolor="#ffffff"
     id="base" />
  <metadata
     id="metadata1616">
    <rdf:RDF>
      <cc:Work
         rdf:about="">
        <dc:format>image/svg+xml</dc:format>
        <dc:type
           rdf:resource="http://purl.org/dc/dcmitype/StillImage" />
        <dc:title></dc:title>
      </cc:Work>
    </rdf:RDF>
  </metadata>
  <g
     transform="translate(-0.27759451,-0.48997041)"
     id="layer1"
     inkscape:groupmode="layer"
     inkscape:label="レイヤー 1">
    <path
       sodipodi:nodetypes="ccccc"
       d="M 29.042133,36.595243 8.2515423,36.325593 1.1196622,52.535693 H 37.852103 Z"
       style="fill:#0000aa;fill-opacity:1;stroke:#000000;stroke-width:0.79379;stroke-miterlimit:4;stroke-dasharray:none;stroke-opacity:1"
       id="rect945-9" />
    <path
       d="m 36.834263,0.58056548 c -0.20649,0.49305002 -0.64477,2.39363002 -0.79647,3.46824002 -0.39192,2.7265503 -0.70377,8.2934405 -0.91447,16.2876705 l -0.0716,2.6802 0.0885,0.16435 c 0.12221,0.23599 0.58156,0.75433 0.82598,0.92711 l 0.20227,0.14329 0.0126,0.30762 c 0.004,0.21914 0.0337,0.35821 0.10115,0.48042 0.12643,0.2402 0.0716,0.36242 -0.27392,0.62791 -0.26549,0.19806 -0.52256,0.53941 -0.52256,0.69112 0,0.0337 -0.0337,0.0969 -0.0716,0.13906 -0.059,0.0674 -0.0632,0.10114 -0.0211,0.21914 0.0295,0.0759 0.0506,0.17278 0.0506,0.21913 0.004,0.12643 0.20649,0.4467 0.49726,0.77541 l 0.26128,0.2992 v 0.716409 c 0,0.859679 -0.0295,0.948179 -0.42141,1.234739 -0.34135,0.252851 -0.68691,0.345561 -1.0704,0.286559 -0.34135,-0.0548 -0.7164,-0.219128 -0.90183,-0.400338 l -0.13906,-0.13485 -0.10114,0.12642 c -0.0548,0.0716 -0.10114,0.139071 -0.10536,0.15593 0,0.0506 -0.44669,0.316061 -0.64897,0.383479 -0.26128,0.0885 -0.71641,0.0927 -0.95661,0.008 -0.25707,-0.0927 -0.47199,-0.248631 -0.61106,-0.446701 -0.059,-0.0885 -0.13485,-0.164349 -0.16013,-0.164349 -0.0295,0 -0.11379,0.0548 -0.18964,0.117999 -0.14328,0.117991 -0.14328,0.117991 -0.40034,0.0632 -0.34135,-0.0716 -1.08304,-0.0674 -1.46653,0.004 -0.75433,0.143279 -1.51709,0.56048 -1.99329,1.083029 -0.62369,0.691118 -0.97346,1.487599 -1.01982,2.334638 -0.0421,0.741691 0.0969,1.487591 0.39191,2.123933 0.22335,0.476199 0.47199,0.830188 0.80069,1.146249 0.24864,0.231769 0.63212,0.488839 0.67427,0.44669 0.0126,-0.01259 0.004,-0.13063 -0.0211,-0.26548 -0.13906,-0.733271 0.0759,-1.437031 0.58577,-1.951162 0.38349,-0.379269 0.87654,-0.594188 1.37381,-0.594188 0.26549,0 0.82597,0.139071 1.01982,0.257069 l 0.1475,0.0843 0.18964,-0.219138 c 0.34134,-0.387699 0.88075,-0.56469 1.41174,-0.459341 0.45934,0.0885 0.69112,0.257062 1.02825,0.75433 0.004,0.008 0.0969,-0.059 0.19806,-0.155919 0.12221,-0.113781 0.24021,-0.18121 0.34978,-0.19807 0.0885,-0.01691 0.20649,-0.0337 0.26549,-0.0464 0.19385,-0.0337 0.67847,0.059 0.91447,0.181208 0.23178,0.113782 0.55627,0.42985 0.67005,0.653201 0.14749,0.282339 0.10956,1.091462 -0.0759,1.58451 -0.0674,0.177001 -0.12642,0.257069 -0.28656,0.370851 -0.16014,0.113779 -0.19385,0.160139 -0.18121,0.244419 0.0126,0.0548 0,0.113782 -0.0253,0.126421 -0.059,0.0379 -0.059,0.307639 -0.004,0.341349 0.0295,0.01691 0.0295,0.0506 0,0.105349 -0.0295,0.0548 -0.0126,0.126432 0.0632,0.269711 0.12642,0.2402 0.13063,0.299202 0.0211,0.57312 -0.0885,0.22757 -0.10536,0.50991 -0.0464,0.766982 0.0295,0.117988 0.0211,0.168558 -0.0211,0.206489 -0.0801,0.0674 -0.0759,0.2697 0.008,0.337129 0.059,0.0464 0.0632,0.109572 0.0421,0.349771 -0.0169,0.181211 -0.0548,0.324498 -0.0969,0.370851 -0.0548,0.059 -0.059,0.0969 -0.0253,0.172778 0.0337,0.0716 0.0295,0.117991 -0.008,0.172781 -0.0337,0.0421 -0.0464,0.101139 -0.038,0.130641 0.0253,0.059 0.0422,0.248628 0.0843,0.813329 0.0253,0.32027 0.0169,0.358201 -0.0632,0.434049 -0.10536,0.101142 -0.10536,0.0885 -0.0253,0.27814 0.0843,0.198059 0.0801,0.311851 -0.0211,0.665829 -0.0927,0.328703 -0.10536,0.670052 -0.0379,0.990331 0.0337,0.160141 0.0337,0.22757 -0.004,0.27392 -0.0379,0.0422 -0.0548,1.12517 -0.0716,4.205721 l -0.0253,4.146709 1.38645,-0.01691 c 0.76276,-0.008 1.46652,-0.02529 1.56766,-0.0379 l 0.177,-0.02109 0.0126,-1.904802 c 0.004,-1.049319 0.0126,-2.806621 0.0126,-3.906509 0.004,-1.099892 0.0211,-2.090211 0.0379,-2.20399 0.0211,-0.1475 0.0126,-0.223361 -0.0337,-0.295 -0.0548,-0.0843 -0.0548,-0.109561 -0.004,-0.17699 0.0801,-0.10957 0.0759,-0.71641 -0.004,-0.94818 -0.0927,-0.257072 -0.0927,-0.585771 -0.008,-0.771191 0.0801,-0.164349 0.0674,-0.24021 -0.0379,-0.24021 -0.0464,0 -0.059,-0.0843 -0.059,-0.417201 0,-0.231769 0.0169,-0.429839 0.0379,-0.446688 0.0422,-0.02109 0.0295,-0.400362 -0.0169,-0.695341 -0.0126,-0.0801 -0.0337,-0.32449 -0.0464,-0.54362 -0.0211,-0.33292 -0.0126,-0.404559 0.0422,-0.43406 0.0801,-0.0464 0.0843,-0.1475 0.0126,-0.27813 -0.0379,-0.0632 -0.0464,-0.172781 -0.0253,-0.33714 0.0211,-0.172781 0.004,-0.341339 -0.0548,-0.60683 l -0.0843,-0.362421 0.10536,-0.23178 c 0.0885,-0.198059 0.10113,-0.261268 0.0674,-0.408768 -0.0253,-0.105352 -0.0253,-0.202282 0,-0.24442 0.0253,-0.0464 0.0211,-0.105351 -0.0169,-0.17699 -0.0295,-0.059 -0.0674,-0.13907 -0.0801,-0.18121 -0.0126,-0.0379 -0.059,-0.0716 -0.10535,-0.0716 -0.0927,0 -0.27392,-0.269708 -0.34135,-0.509918 -0.0253,-0.0801 -0.0422,-0.391912 -0.0464,-0.69954 -0.004,-0.438272 0.008,-0.581551 0.059,-0.66162 0.0927,-0.13907 0.67846,-0.42985 0.97768,-0.484632 0.39191,-0.0716 0.8934,0 1.2811,0.18542 0.54362,0.257062 1.09568,0.910262 1.17153,1.378032 l 0.0253,0.160139 0.21914,-0.02529 c 0.34134,-0.0421 0.61948,0.0716 0.90604,0.358198 0.29076,0.299202 0.40034,0.573122 0.36663,0.935541 -0.0126,0.13907 -0.059,0.31606 -0.10957,0.400341 -0.0506,0.0801 -0.0885,0.155929 -0.0885,0.164348 0,0.008 0.0716,0.0506 0.16014,0.0927 0.0843,0.0379 0.4804,0.38771 0.87233,0.775409 0.77962,0.766969 1.04511,0.99875 1.55923,1.352741 0.63633,0.438269 1.48338,0.834401 2.25878,1.057741 0.57313,0.168568 1.98066,0.303429 1.97222,0.18964 0,-0.0295 -0.24863,-0.265491 -0.55626,-0.518332 -1.1926,-0.99876 -2.33886,-2.566419 -2.96255,-4.04137 -0.42984,-1.011399 -0.75011,-2.208218 -0.88498,-3.29125 -0.10534,-0.821759 -0.10534,-2.372559 -0.004,-3.097401 0.29499,-2.056498 0.95662,-3.531452 2.40207,-5.330892 0.48462,-0.60262 1.20946,-1.32746 1.56766,-1.56766 0.16856,-0.10957 0.22335,-0.16436 0.18964,-0.19807 -0.0295,-0.0295 -0.2655,-0.0464 -0.64477,-0.0421 -0.80911,0.004 -1.60138,0.15593 -2.45263,0.46777 -0.89762,0.32871 -1.46231,0.72905 -2.42314,1.70252 -0.40456,0.40877 -0.8049,0.77962 -0.88496,0.81754 -0.0801,0.0421 -0.15172,0.0801 -0.16015,0.0843 -0.004,0.004 0.0379,0.0927 0.0969,0.19385 0.2065,0.36242 0.11799,0.91869 -0.20228,1.2516 -0.22756,0.236001 -0.42984,0.320281 -0.79647,0.320281 l -0.32449,0.004 -0.0885,0.23599 c -0.18543,0.493059 -0.7122,1.002969 -1.23897,1.196819 -0.77962,0.290782 -1.61823,0.126421 -2.13235,-0.417198 l -0.1475,-0.155932 -0.0126,-0.632118 c -0.0169,-0.691122 0.004,-0.796472 0.20649,-0.990322 0.0674,-0.0632 0.12221,-0.13485 0.12221,-0.15593 0,-0.0169 0.0506,-0.0801 0.118,-0.13485 0.13485,-0.11378 0.26549,-0.37084 0.36663,-0.69954 0.12642,-0.41721 0.0506,-0.55206 -0.66584,-1.20946 -0.20228,-0.18543 -0.2402,-0.24442 -0.2402,-0.36242 0,-0.0801 0.0379,-0.18964 0.0885,-0.25285 0.0548,-0.0716 0.0759,-0.13907 0.059,-0.18542 -0.0337,-0.0759 -0.0295,-0.48884 0.004,-0.60263 0.008,-0.0379 0.10957,-0.13063 0.21914,-0.2107 0.27813,-0.19807 0.6279,-0.53099 0.73326,-0.70377 0.0885,-0.14328 0.0885,-0.15592 0.0632,-2.06914 -0.059,-3.99923 -0.17699,-7.54754 -0.3877,-11.6774002 -0.15591,-3.01312 -0.3919,-5.1370503 -0.78381,-7.1008503 -0.1475,-0.72061 -0.39192,-1.71094002 -0.45935,-1.83315002 -0.059,-0.11378 -0.20227,-0.10535 -0.25284,0.008 z"
       id="path1431"
       style="fill:#000000;stroke:none;stroke-width:0.00421415" />
    <rect
       style="fill:#f01414;fill-opacity:1;stroke:#cc2211;stroke-width:0.603001;stroke-miterlimit:4;stroke-dasharray:none;stroke-opacity:1;paint-order:markers stroke fill"
       id="rect1397"
       width="15.005426"
       height="17.673058"
       x="10.933847"
       y="34.788021" />
    <path
       sodipodi:nodetypes="ccccccc"
       d="m 22.241063,14.209596 h 8.35912 v 16.077309 l 2.50575,4.339108 -8.93057,-0.236458 -1.9343,-3.909901 z"
       style="fill:#f9e28d;fill-opacity:1;stroke:#000000;stroke-width:0.899999;stroke-miterlimit:4;stroke-dasharray:none;stroke-opacity:1;paint-order:markers stroke fill"
       id="rect956-3-7" />
    <rect
       y="34.073849"
       x="10.404673"
       height="18.387222"
       width="2.381434"
       id="rect1397-8"
       style="fill:#f8f8f8;fill-opacity:1;stroke:#140d0c;stroke-width:0.488836;stroke-miterlimit:4;stroke-dasharray:none;stroke-opacity:1;paint-order:markers stroke fill" />
    <rect
       style="fill:#f8f8f8;fill-opacity:1;stroke:#140d0c;stroke-width:0.488836;stroke-miterlimit:4;stroke-dasharray:none;stroke-opacity:1;paint-order:markers stroke fill"
       id="rect1397-8-7"
       width="2.381434"
       height="18.387222"
       x="24.35177"
       y="34.073833" />
    <ellipse
       ry="14.874611"
       rx="11.931735"
       cy="24.124613"
       cx="18.09971"
       id="path952-5-9-9"
       style="fill:#f4e3d7;stroke:#000000;stroke-width:0.812154;stroke-miterlimit:4;stroke-dasharray:none;stroke-opacity:1" />
    <path
       id="rect956-3"
       style="fill:#f2f98d;fill-opacity:1;stroke:#000000;stroke-width:0.899999;stroke-miterlimit:4;stroke-dasharray:none;stroke-opacity:1;paint-order:markers stroke fill"
       d="M 12.868143,14.608056 H 4.5090222 v 16.077309 l -2.50575,4.339111 8.9305708,-0.236461 1.9343,-3.909901 z"
       sodipodi:nodetypes="ccccccc" />
    <path
       d="m 16.062383,5.4827255 c -1.64451,0.0677 -2.74898,0.20179 -3.95112,0.4814203 -0.86953,0.2018 -1.50722,0.41657 -2.1235305,0.71493 -0.8329302,0.40505 -1.3485602,0.7971 -2.2699702,1.72825 -0.9915901,0.99889 -1.3974001,1.31746 -2.1357301,1.6778002 -6.05257992,2.25369 -7.1390099,0.0253 -0.48519,4.74354 0.006,0 0.33867,-0.0389 0.73532,-0.085 2.5811801,-0.30557 5.1684708,-0.49583 7.8350708,-0.578 4.53997,-0.13837 9.32402,0.0721 14.11416,0.61836 0.21342,0.0245 0.39357,0.0447 0.40274,0.0447 0.009,0 2.27586,-0.5341 2.41605,-0.61913 0.55224,-0.33873 0.32213,0.2416 1.80221,-1.10679 1.78598,-1.14901 4.11313,-3.3189502 0.61759,-2.57501 -1.24788,0.19172 -2.20284,0.26522 -2.83442,0.21623 -1.29975,-0.10242 -2.40727,-0.49442 -3.38666,-1.2007002 -0.13123,-0.0952 -0.55529,-0.47711 -1.09227,-0.98448 -0.93974,-0.88791 -1.07704,-1.00754 -1.51332,-1.31889 -1.15636,-0.82448 -2.45305,-1.28141 -4.44234,-1.5639303 -0.86345,-0.12391 -1.7879,-0.18738 -2.83441,-0.19458 -0.3936,-0.001 -0.77803,-0.001 -0.85428,10e-4 z"
       id="path1370"
       style="fill:#f52719;fill-opacity:1;stroke:#7b0d0d;stroke-width:0.571;stroke-miterlimit:4;stroke-dasharray:none;stroke-opacity:1"
       sodipodi:nodetypes="cccccccccscccccsccccc" />
  </g>
</svg>
