<?xml version="1.0" encoding="UTF-8" standalone="no"?>
<svg
   xmlns:dc="http://purl.org/dc/elements/1.1/"
   xmlns:cc="http://creativecommons.org/ns#"
   xmlns:rdf="http://www.w3.org/1999/02/22-rdf-syntax-ns#"
   xmlns:svg="http://www.w3.org/2000/svg"
   xmlns="http://www.w3.org/2000/svg"
   xmlns:sodipodi="http://sodipodi.sourceforge.net/DTD/sodipodi-0.dtd"
   xmlns:inkscape="http://www.inkscape.org/namespaces/inkscape"
   sodipodi:docname="queen.svg"
   inkscape:version="1.0 (4035a4f, 2020-05-01)"
   id="svg1554"
   version="1.1"
   viewBox="0 0 50.653278 51.598316"
   height="51.598316mm"
   width="50.653278mm">
  <defs
     id="defs1548" />
  <sodipodi:namedview
     inkscape:window-maximized="0"
     inkscape:window-y="23"
     inkscape:window-x="0"
     inkscape:window-height="855"
     inkscape:window-width="1440"
     showgrid="false"
     inkscape:document-rotation="0"
     inkscape:current-layer="layer1"
     inkscape:document-units="mm"
     inkscape:cy="118.06913"
     inkscape:cx="135.74609"
     inkscape:zoom="1.2944121"
     inkscape:pageshadow="2"
     inkscape:pageopacity="0.0"
     borderopacity="1.0"
     bordercolor="#666666"
     pagecolor="#ffffff"
     id="base" />
  <metadata
     id="metadata1551">
    <rdf:RDF>
      <cc:Work
         rdf:about="">
        <dc:format>image/svg+xml</dc:format>
        <dc:type
           rdf:resource="http://purl.org/dc/dcmitype/StillImage" />
        <dc:title></dc:title>
      </cc:Work>
    </rdf:RDF>
  </metadata>
  <g
     transform="translate(-0.52693237,-0.96985705)"
     id="layer1"
     inkscape:groupmode="layer"
     inkscape:label="レイヤー 1">
    <path
       d="m 8.2491938,31.339083 c -0.3884901,-0.309873 -0.89124,-0.43819 -1.3338,-0.34117 -0.2487801,0.0547 -0.42877,0.150728 -0.63323,0.332668 -0.3139702,0.283941 -0.5110101,0.621361 -0.6523802,1.12662 -0.0272,0.0964 -0.0516,0.17707 -0.0542,0.17966 -0.003,0.003 -0.019899,-0.089 -0.037,-0.201559 -0.044,-0.2774 -0.1767601,-0.67463 -0.29084,-0.87312 -0.2858802,-0.492961 -0.70485,-0.76009 -1.22316,-0.782751 -0.6997801,-0.0312 -1.3746902,0.40944 -1.5945402,1.043141 -0.20634,0.59206 -0.0313,1.188291 0.5313,1.8162 l 0.1909901,0.211101 -0.2172301,-0.0795 c -1.0017301,-0.36888 -1.83104,-0.14155 -2.22721007,0.610391 -0.1266799,0.237659 -0.1802599,0.476091 -0.1809599,0.779121 -7.3e-4,0.662228 0.3758999,1.216268 0.96921987,1.426538 0.20555,0.0728 0.41033,0.10246 0.6729101,0.0988 0.21557,-0.004 0.57147,-0.0604 0.73798,-0.117301 0.0511,-0.0164 0.097,-0.025 0.10338,-0.01849 0.005,0.005 0.003,0.01281 -0.008,0.0159 -0.0113,0.0011 -0.10008,0.072 -0.19894,0.155869 -0.7686801,0.653809 -0.9927501,1.433761 -0.61384,2.13804 0.096,0.18003 0.39694,0.492831 0.57497,0.59773 0.5372902,0.31677 1.1301801,0.328499 1.6062801,0.0307 0.2196301,-0.137369 0.5225299,-0.482801 0.6336401,-0.7258 0.01,-0.02199 0.021201,-0.02069 0.0444,0.003 0.0336,0.0343 0.0305,0.19757 -0.0277,1.213149 -0.0279,0.515649 -0.0446,0.852461 -0.0762,1.591411 -0.005,0.118819 -0.05,0.14964 -0.2105501,0.141359 -0.1200999,-0.004 -0.16564,-0.0266 -0.13125,-0.0602 0.0357,-0.0349 0.1142,-0.290042 0.12051,-0.389232 0.003,-0.0522 -0.011499,-0.141189 -0.0318,-0.196281 -0.0317,-0.0879 -0.0536,-0.118118 -0.2034198,-0.27128 -0.1564401,-0.15706 -0.1812599,-0.176711 -0.3290101,-0.25181 -0.19098,-0.0948 -0.4472998,-0.18515 -0.70914,-0.24941 -0.41816,-0.10256 -0.78356,-0.13268 -1.25546,-0.100002 -0.3163401,0.0226 -0.5107001,-0.0021 -0.79438,-0.0988 -0.1457001,-0.0513 -0.2030801,-0.0623 -0.1915801,-0.04 0.009,0.01741 0.068,0.114389 0.1308401,0.215677 0.0629,0.101301 0.16794,0.290492 0.23051,0.420511 0.3437799,0.692142 0.74601,1.05574 1.38781,1.25218 0.67435,0.20593 1.1019902,0.159681 1.5300601,-0.16609 0.0659,-0.0489 0.079,-0.0514 0.18971,-0.028 0.0651,0.01381 0.1499999,0.0186 0.1893001,0.009 l 0.072,-0.01619 -0.0136,0.40346 c -0.020899,0.59409 -0.0342,1.209159 -0.0476,2.075019 -0.010901,0.75225 -0.012401,0.771821 -0.0653,0.836541 -0.0288,0.0366 -0.0791,0.0829 -0.1096698,0.1045 -0.0461,0.0296 -0.0605,0.0307 -0.0693,0.006 -0.0775,-0.19807 -0.12109,-0.27432 -0.21019,-0.368041 -0.0812,-0.0859 -0.1122098,-0.10469 -0.2035799,-0.13416 -0.3644199,-0.11894 -0.85314,0.0181 -1.4635,0.408469 -0.317,0.204232 -0.53063,0.387343 -0.8096601,0.699072 -0.1322501,0.15008 -0.2801801,0.299979 -0.32635,0.33732 -0.0962,0.0734 -0.35382,0.222059 -0.45613,0.262768 -0.1167499,0.0471 -0.1128999,0.051 0.14252,0.108641 0.11074,0.02601 0.3073601,0.0817 0.4361899,0.126251 0.4502502,0.15385 0.8101202,0.212648 1.1122002,0.1807 0.56492,-0.0591 1.30475,-0.465072 1.5664099,-0.860592 0.10101,-0.155609 0.19113,-0.396298 0.20325,-0.547679 0.008,-0.124019 0.0171,-0.135671 0.15,-0.221729 l 0.0908,-0.0604 -0.004,0.402259 c -0.00101,0.220729 -0.0108,0.744411 -0.021899,1.160971 -0.022799,0.885338 -0.019801,1.089138 0.021299,1.986938 0.0698,1.49505 0.2095601,3.402312 0.26919,3.68249 l 0.014901,0.0707 0.012499,-0.0717 c 0.007,-0.0378 0.0102,-0.219329 0.007,-0.40222 -0.006,-0.291349 0.0584,-4.372488 0.1103899,-7.090108 l 0.018201,-0.940261 0.0915,-0.004 c 0.0523,-0.0021 0.1229598,-0.01169 0.1582298,-0.0205 0.055,-0.01241 0.0772,-0.006 0.1315601,0.0367 0.2174902,0.174839 0.4254601,0.27114 0.65888,0.30634 0.33254,0.0494 0.88891,-0.0634 1.2947301,-0.264012 0.436,-0.214669 0.7109399,-0.512069 1.0111999,-1.092658 0.0667,-0.127251 0.1745401,-0.312869 0.2383102,-0.41144 0.1075499,-0.159491 0.13554,-0.212762 0.1094198,-0.207772 -0.004,0.0011 -0.0774,0.0266 -0.1638499,0.0544 -0.2504101,0.0848 -0.43225,0.11021 -0.68941,0.0956 -0.4386,-0.02569 -0.71677,-0.0301 -0.8971999,-0.01381 -0.4262602,0.0397 -0.9607802,0.185388 -1.2550802,0.34153 -0.1221898,0.0653 -0.1827699,0.109 -0.2923601,0.216209 -0.1783299,0.171659 -0.2329799,0.28221 -0.2283798,0.458581 0.003,0.103209 0.0529,0.29708 0.104,0.402148 0.0205,0.0394 -0.020201,0.0533 -0.16247,0.0479 l -0.1070901,-0.004 0.0112,-0.543247 c 0.0421,-2.175651 0.1062601,-4.450332 0.1260599,-4.469702 0.009,-0.009 0.0401,0.041 0.0809,0.12759 0.11098,0.240271 0.2126501,0.381119 0.39625,0.55294 0.32453,0.305271 0.7019399,0.429601 1.1439499,0.38219 0.6238301,-0.0702 1.16655,-0.487479 1.36609,-1.05479 0.0553,-0.160028 0.0651,-0.22396 0.0675,-0.435528 0.00201,-0.208971 -0.007,-0.282221 -0.0591,-0.448673 C 8.3183548,37.592896 8.1335248,37.295666 7.8286748,36.984066 l -0.1679199,-0.171649 0.2419998,0.0863 c 0.69737,0.2506 1.2867,0.229639 1.7378896,-0.0593 0.6682407,-0.428947 0.8791007,-1.433708 0.4520607,-2.155488 -0.0936,-0.15647 -0.3145697,-0.377021 -0.4753197,-0.472991 -0.4256705,-0.252838 -0.9633806,-0.2927 -1.6457804,-0.121229 -0.0747,0.01881 -0.1309,0.0273 -0.1229702,0.0196 0.008,-0.008 0.0961,-0.0814 0.19382,-0.16374 0.7658801,-0.635532 0.9931001,-1.465111 0.5931501,-2.15655 -0.0872,-0.14987 -0.2574301,-0.347652 -0.3856199,-0.449641 z m 0.2201,11.25787 c -0.9770401,0.596659 -1.4722099,0.845939 -2.1132501,1.057039 -0.28448,0.0948 -0.6814,0.198901 -0.7204599,0.188029 -0.0495,-0.01101 -0.0156,-0.02601 0.1377699,-0.0573 0.2264701,-0.0459 0.5790099,-0.153012 0.8662799,-0.263502 0.3843102,-0.145989 0.8585002,-0.38767 1.5223501,-0.773559 0.6376,-0.3731 0.8056901,-0.454861 0.3073101,-0.150749 z m -3.94794,-0.894932 c -0.11239,0.009 -0.87376,-0.245999 -1.2831702,-0.432039 -0.32364,-0.145941 -0.90772,-0.4841 -1.5238101,-0.881411 -0.43317,-0.28166 -0.3007,-0.209709 0.3467501,0.18275 0.66821,0.408321 0.98374,0.580282 1.34254,0.73574 0.2964301,0.126021 0.6815902,0.260861 0.9303901,0.322371 0.20975,0.0506 0.25136,0.0668 0.18729,0.0726 z M 1.4135235,40.189342 c -0.008,-9e-5 -0.0205,-0.01101 -0.026,-0.02371 -0.006,-0.01479 0.002,-0.01421 0.0157,1.72e-4 0.0156,0.0131 0.0191,0.02519 0.0103,0.0235 z m 3.0048701,5.184561 c -0.5087398,0.296148 -1.0676599,0.522528 -1.66895,0.681828 -0.57244,0.149162 -1.4235701,0.340972 -1.4403601,0.323811 -0.004,-0.004 0.0146,-0.01151 0.042,-0.01791 0.11912,-0.02349 0.7778401,-0.179562 1.1445901,-0.27219 0.7728001,-0.195299 1.4405401,-0.458361 1.9533802,-0.771451 0.0907,-0.0552 0.16555,-0.0896 0.16545,-0.0792 -1.4e-4,0.0127 -0.0882,0.0737 -0.1960801,0.13503 z"
       id="path1193"
       style="fill:#ff0066;stroke:none;stroke-width:0.00184712" />
    <path
       id="rect945-9-5"
       style="fill:#aa0000;stroke:#000000;stroke-width:0.663903;stroke-miterlimit:4;stroke-dasharray:none;stroke-opacity:1"
       d="m 12.621175,40.561725 20.140121,-0.19472 6.90876,11.705482 H 4.0868238 Z"
       sodipodi:nodetypes="ccccc" />
    <path
       id="path1289-8"
       d="M 32.232124,35.418709 22.173375,51.776079 16.376845,51.750469 27.316986,34.65311 Z"
       style="fill:#efefef;fill-opacity:1;stroke:#000000;stroke-width:1.072;stroke-linecap:butt;stroke-linejoin:miter;stroke-miterlimit:4;stroke-dasharray:none;stroke-opacity:1" />
    <path
       style="fill:#efefef;fill-opacity:1;stroke:#000000;stroke-width:1.072;stroke-linecap:butt;stroke-linejoin:miter;stroke-miterlimit:4;stroke-dasharray:none;stroke-opacity:1"
       d="M 12.114624,35.418717 22.173375,51.776076 27.969906,51.750466 17.029765,34.653118 Z"
       id="path1289-8-2" />
    <ellipse
       style="fill:#f4e3d7;stroke:#000000;stroke-width:0.812154;stroke-miterlimit:4;stroke-dasharray:none;stroke-opacity:1"
       id="path952-5-9"
       cx="21.027504"
       cy="28.128464"
       rx="11.931735"
       ry="14.874611" />
    <path
       style="fill:#e7f14c;fill-opacity:1;stroke:#000000;stroke-width:0.534289;stroke-linecap:butt;stroke-linejoin:miter;stroke-miterlimit:4;stroke-dasharray:none;stroke-opacity:1"
       d="m 20.385835,17.525146 19.24392,34.77511 11.089661,-0.0544 -20.930171,-36.34829 z"
       id="path1289" />
    <g
       id="g1211"
       stroke="none"
       fill="#000000"
       transform="matrix(0.00242789,0,0,-0.00242789,5.2891831,18.866684)"
       style="fill:#87cdde;stroke:#0b9df7;stroke-width:242.7;stroke-miterlimit:4;stroke-dasharray:none;stroke-opacity:1">
      <path
         id="path1207"
         d="m 6319,7158 c -115,-179 -212,-405 -255,-598 -11,-49 -17,-124 -17,-215 -1,-173 10,-225 90,-412 2,-6 -45,22 -106,62 -355,234 -610,295 -810,193 -78,-40 -124,-100 -141,-184 -40,-190 102,-461 262,-505 50,-13 94,1 133,41 29,30 29,30 12,65 -41,85 -9,161 85,208 147,74 352,28 436,-98 29,-43 33,-55 27,-90 -8,-54 -49,-125 -160,-275 -98,-133 -113,-157 -125,-200 -11,-38 4,-50 60,-50 143,0 289,81 343,191 l 25,49 52,-126 52,-126 -12,-67 c -19,-114 -79,-380 -120,-532 -239,-886 -597,-1404 -1049,-1520 -366,-94 -816,176 -1260,756 -48,62 -60,86 -57,105 3,14 8,76 12,138 3,61 8,112 11,112 2,0 15,-13 29,-29 39,-47 125,-82 213,-88 86,-6 180,10 211,35 19,16 20,21 9,45 -13,29 -93,93 -234,187 -94,63 -171,133 -192,174 -10,19 -13,42 -9,68 22,138 169,255 331,266 86,5 131,-7 171,-49 24,-26 30,-41 34,-97 5,-62 7,-68 35,-81 133,-65 260,85 273,320 8,170 -47,294 -157,351 -45,24 -65,28 -132,28 -223,0 -427,-146 -684,-490 -26,-36 -51,-68 -54,-72 -3,-4 -6,59 -7,140 0,181 -18,254 -104,427 -68,137 -149,250 -271,379 -112,119 -270,251 -280,234 -11,-20 -46,-161 -66,-268 -13,-73 -17,-145 -17,-310 0,-201 2,-222 27,-315 36,-132 100,-262 176,-357 35,-43 67,-78 72,-78 5,0 9,-4 9,-10 0,-6 -10,-6 -27,1 -117,44 -418,99 -544,99 -196,-1 -383,-92 -445,-218 -14,-27 -19,-59 -19,-118 0,-72 4,-87 37,-156 48,-95 142,-194 229,-237 84,-42 163,-44 209,-5 17,15 37,39 45,55 15,27 14,30 -20,75 -44,58 -48,116 -11,179 67,113 265,176 399,125 72,-27 122,-70 131,-111 9,-49 -9,-139 -65,-314 -59,-188 -69,-244 -45,-264 24,-20 82,1 165,60 97,68 151,147 167,246 l 6,42 84,-97 84,-97 v -85 c 0,-110 -26,-435 -46,-570 -60,-414 -175,-706 -339,-858 -79,-74 -137,-103 -290,-142 -97,-25 -147,-32 -260,-37 -128,-4 -149,-2 -239,21 -183,47 -450,198 -693,390 -74,59 -83,70 -97,120 -9,30 -19,62 -22,71 -5,13 -2,13 36,0 112,-39 269,9 380,116 78,76 40,99 -210,129 -290,34 -350,62 -365,169 -8,59 14,156 50,216 31,54 115,131 168,155 55,25 121,25 161,0 32,-19 46,-40 66,-92 12,-35 48,-37 110,-5 80,40 108,144 76,281 -51,217 -203,368 -357,354 -115,-11 -255,-120 -332,-259 -65,-117 -142,-386 -163,-571 -4,-32 -11,-58 -15,-58 -5,0 -9,6 -9,14 0,32 -93,196 -149,263 -158,187 -466,345 -801,412 -115,23 -220,37 -220,29 0,-8 247,-234 379,-347 418,-356 511,-438 653,-572 86,-82 228,-227 316,-322 131,-141 187,-212 307,-387 408,-596 524,-851 570,-1245 9,-77 17,-140 19,-142 1,-1 1863,-6 4138,-9 l 4135,-7 7,63 c 35,304 264,799 612,1316 169,252 281,401 386,514 152,162 388,381 668,618 256,218 523,455 570,507 l 25,27 -55,-7 c -420,-52 -797,-226 -979,-450 -57,-70 -141,-223 -141,-256 0,-42 -17,-7 -24,48 -21,180 -84,410 -149,543 -52,105 -152,211 -241,255 -121,59 -246,31 -342,-79 -85,-98 -140,-254 -131,-373 8,-102 56,-161 140,-170 l 45,-5 20,43 c 32,71 63,94 130,93 194,-2 369,-275 290,-450 -19,-40 -101,-73 -228,-90 -63,-8 -162,-22 -219,-30 -107,-14 -151,-32 -151,-61 0,-27 88,-101 168,-141 90,-44 191,-55 256,-28 28,11 37,12 33,3 -2,-7 -15,-50 -28,-96 l -24,-83 -90,-78 c -289,-248 -502,-375 -720,-430 -78,-19 -107,-22 -225,-18 -144,6 -244,30 -355,86 -319,160 -497,543 -555,1197 -5,61 -14,197 -20,303 l -11,193 88,101 88,101 6,-49 c 9,-70 48,-141 111,-201 60,-56 168,-116 201,-111 38,5 29,97 -25,268 -64,199 -68,217 -68,284 0,54 3,61 35,92 43,40 130,74 193,74 113,0 238,-57 293,-133 52,-71 48,-146 -11,-202 l -29,-28 20,-39 c 30,-58 71,-80 144,-76 179,11 375,230 376,423 1,157 -122,277 -331,321 -137,29 -384,2 -627,-70 l -83,-24 50,55 c 67,73 104,128 145,216 80,168 117,416 95,639 -16,175 -72,439 -93,440 -20,0 -224,-181 -300,-267 -253,-283 -373,-568 -353,-838 l 6,-90 -81,109 c -45,60 -134,161 -198,225 -167,166 -278,227 -434,237 -109,7 -159,-10 -223,-72 -72,-71 -96,-139 -97,-271 -2,-155 48,-284 134,-347 32,-24 103,-27 144,-6 28,15 30,20 30,76 0,69 19,103 75,134 54,30 185,21 265,-17 110,-53 194,-161 195,-251 0,-68 -51,-120 -245,-254 -66,-45 -137,-99 -157,-118 -82,-78 -33,-116 147,-117 127,0 181,18 247,83 21,20 38,32 38,27 0,-6 5,-61 10,-124 l 9,-115 -63,-86 c -177,-242 -418,-502 -576,-622 -232,-176 -439,-236 -612,-177 -500,168 -886,762 -1132,1744 -29,116 -61,254 -71,307 l -19,97 29,73 c 16,40 37,93 48,116 l 19,44 20,-41 c 28,-57 117,-136 181,-159 72,-27 171,-46 202,-38 21,5 25,12 25,41 0,36 -27,81 -153,250 -76,102 -137,215 -137,254 0,48 69,130 140,166 221,113 504,-22 414,-197 -12,-23 -13,-36 -5,-54 12,-28 79,-64 117,-64 77,0 184,95 242,215 114,234 54,444 -146,505 -86,27 -213,27 -312,0 -102,-28 -310,-132 -450,-224 -63,-42 -116,-76 -117,-76 -2,0 3,10 11,23 29,44 76,205 86,297 24,214 -32,472 -159,736 -62,128 -156,284 -172,284 -6,0 -37,-42 -70,-92 z"
         style="fill:#87cdde;stroke:#0b9df7;stroke-width:242.7;stroke-miterlimit:4;stroke-dasharray:none;stroke-opacity:1" />
      <path
         id="path1209"
         d="m 2248,528 -3,-52 -30,45 -29,44 -14,-78 -14,-78 -47,6 c -25,3 -61,8 -80,11 -32,5 -34,4 -21,-13 8,-10 32,-37 54,-61 l 41,-43 -57,-55 -56,-54 h 78 79 l 6,-35 c 3,-19 8,-52 11,-72 l 6,-38 19,23 c 10,13 27,36 38,50 l 20,27 1,-77 V 0 h 4140 4139 l 3,78 3,77 36,-75 36,-75 23,70 c 12,39 24,73 26,76 2,4 32,1 66,-7 35,-7 69,-13 76,-14 7,0 -6,27 -29,62 l -42,61 34,29 c 19,15 46,36 62,45 15,10 27,21 27,25 0,4 -35,8 -77,10 l -78,3 1,78 2,79 -58,-57 -58,-57 -26,17 c -24,16 -26,23 -26,86 v 69 H 6391 2251 Z"
         style="fill:#87cdde;stroke:#0b9df7;stroke-width:242.7;stroke-miterlimit:4;stroke-dasharray:none;stroke-opacity:1" />
    </g>
  </g>
</svg>
