<?xml version="1.0" encoding="UTF-8" standalone="no"?>
<svg
   xmlns:dc="http://purl.org/dc/elements/1.1/"
   xmlns:cc="http://creativecommons.org/ns#"
   xmlns:rdf="http://www.w3.org/1999/02/22-rdf-syntax-ns#"
   xmlns:svg="http://www.w3.org/2000/svg"
   xmlns="http://www.w3.org/2000/svg"
   xmlns:sodipodi="http://sodipodi.sourceforge.net/DTD/sodipodi-0.dtd"
   xmlns:inkscape="http://www.inkscape.org/namespaces/inkscape"
   sodipodi:docname="spade.svg"
   inkscape:version="1.0 (4035a4f, 2020-05-01)"
   id="svg8"
   version="1.1"
   viewBox="0 0 80.500816 90.874886"
   height="90.874886mm"
   width="80.500816mm">
  <defs
     id="defs2" />
  <sodipodi:namedview
     inkscape:window-maximized="0"
     inkscape:window-y="23"
     inkscape:window-x="0"
     inkscape:window-height="855"
     inkscape:window-width="1440"
     showgrid="false"
     inkscape:document-rotation="0"
     inkscape:current-layer="layer1"
     inkscape:document-units="mm"
     inkscape:cy="261.80239"
     inkscape:cx="265.16681"
     inkscape:zoom="0.65148719"
     inkscape:pageshadow="2"
     inkscape:pageopacity="0.0"
     borderopacity="1.0"
     bordercolor="#666666"
     pagecolor="#ffffff"
     id="base" />
  <metadata
     id="metadata5">
    <rdf:RDF>
      <cc:Work
         rdf:about="">
        <dc:format>image/svg+xml</dc:format>
        <dc:type
           rdf:resource="http://purl.org/dc/dcmitype/StillImage" />
        <dc:title></dc:title>
      </cc:Work>
    </rdf:RDF>
  </metadata>
  <g
     transform="translate(-0.72380632,0.00849162)"
     id="layer1"
     inkscape:groupmode="layer"
     inkscape:label="レイヤー 1">
    <path
       style="fill:#1184ea;fill-opacity:1;stroke:#1365d9;stroke-width:1.507;stroke-miterlimit:4;stroke-dasharray:none;stroke-opacity:1"
       id="path833"
       d="m 40.503129,1.9806239 c -2.66962,4.0183401 -6.110926,7.7238297 -10.914851,11.7699701 -2.18297,1.83536 -3.87929,3.17017 -8.238279,6.46548 -6.486341,4.90821 -8.808353,6.827 -11.4779737,9.48967 -4.0252856,4.01833 -6.4098686,7.88371 -7.4387836,12.06195 -0.625692,2.54448 -1.091485,7.07032 -0.910729,8.79445 0.04866,0.40322 0.111234,1.05672 0.152946,1.45994 0.729974,7.22327 4.776116,12.347 11.4710223,14.51607 1.793651,0.58397 3.163221,0.86206 5.526947,1.14014 1.202719,0.13905 4.776115,0.11819 6.013596,-0.0347 3.900146,-0.48664 6.861755,-1.65461 9.427093,-3.71939 1.16796,-0.93854 2.530577,-2.46105 3.267504,-3.64292 0.215516,-0.35456 0.375416,-0.43103 0.375416,-0.18075 0,0.70216 -0.431033,5.43657 -0.702167,7.73773 -0.938538,8.04362 -2.725237,12.83364 -6.069214,16.28885 -2.523623,2.60704 -6.124829,4.50497 -10.817519,5.7077 l -1.077581,0.27808 h 21.864463 21.86446 l -1.008059,-0.27113 c -8.231327,-2.18992 -12.659835,-5.95798 -14.988801,-12.75717 -1.20967,-3.51778 -1.890982,-7.63344 -2.461055,-14.83585 -0.159899,-1.99526 -0.166851,-2.30116 -0.06952,-2.30116 0.03476,0 0.25723,0.27809 0.486649,0.62569 0.799497,1.18882 2.169065,2.66267 3.267504,3.52474 2.009167,1.57117 4.706593,2.74609 7.508304,3.2814 1.619848,0.30589 2.641809,0.38932 4.866492,0.38236 2.940758,0 4.894306,-0.22246 7.195461,-0.8273 7.237173,-1.89098 11.547497,-6.63928 12.57641,-13.8695 0.38237,-2.66267 0.375418,-4.46327 -0.02779,-7.64735 -0.451885,-3.54559 -1.001102,-5.47829 -2.294202,-8.02971 -1.223577,-2.43326 -2.711331,-4.47022 -5.054201,-6.93823 -2.711348,-2.84345 -5.116789,-4.85956 -12.708521,-10.61593 -4.21994,-3.19798 -6.13178,-4.70659 -8.06447,-6.35425 -3.330076,-2.84342 -6.090072,-5.6173304 -8.293899,-8.35647 -0.71607,-0.89682 -1.995262,-2.65572 -2.41239,-3.3300601 -0.180755,-0.28505 -0.333703,-0.52142 -0.347607,-0.52142 -0.007,0 -0.22942,0.3198 -0.486648,0.70911 z" />
  </g>
</svg>
